<?xml version="1.0" standalone="no"?>
<!DOCTYPE svg PUBLIC "-//W3C//DTD SVG 1.1//EN" "http://www.w3.org/Graphics/SVG/1.1/DTD/svg11.dtd" >
<svg xmlns="http://www.w3.org/2000/svg">
<metadata></metadata>
<defs>
<font id="magicmedievalregular" horiz-adv-x="1255" >
<font-face units-per-em="2048" ascent="1638" descent="-410" />
<missing-glyph horiz-adv-x="534" />
<glyph horiz-adv-x="2048" />
<glyph horiz-adv-x="2048" />
<glyph unicode="&#xd;" horiz-adv-x="534" />
<glyph unicode=" "  horiz-adv-x="534" />
<glyph unicode="&#x09;" horiz-adv-x="534" />
<glyph unicode="&#xa0;" horiz-adv-x="534" />
<glyph unicode="!" horiz-adv-x="421" d="M24 119q0 20 61 67.5t91 47.5q22 0 72 -49q53 -52 53 -85q-26 -27 -151 -100q-22 2 -73 47q-53 47 -53 72zM43 1282q0 98 6 108q43 43 221 44q0 -201 -40 -648q-43 -487 -76 -487q-9 0 -19 16q-42 103 -70 453q-22 284 -22 514z" />
<glyph unicode="&#x22;" horiz-adv-x="692" d="M-18 1112l250 229q49 0 48 -14q0 -9 -16 -29q-20 -21 -41 -42q-30 -31 -30 -39q0 -5 34 -23q44 -22 51 -41q0 -31 -48 -89q-44 -53 -68 -64q-3 0 -180 112zM311 1089q0 32 230 252q30 0 30 -20q0 -13 -63 -94q-5 -6 -12 -16l38 -19q39 -20 45 -39q0 -26 -51 -87t-81 -66 q-97 51 -136 89z" />
<glyph unicode="$" horiz-adv-x="1093" d="M-96 2q0 18 39 119q4 11 10 27q65 217 84 223q20 0 61 -42q6 -6 23 -18q10 -10 132 -79q137 -78 171 -78q6 92 6 287q0 168 -9.5 179t-33.5 11q-7 0 -63.5 -10.5t-79.5 -10.5q-127 0 -205 150q-33 63 -33 166q0 239 150 342q95 65 182 83q115 25 115 46q0 7 -3 20t-3 21 q0 35 51 35q26 0 26 -27q0 -5 -2 -22t-2 -25q0 -6 4 -23q8 -19 103 -37q57 -9 155 -41q52 88 76 88q19 0 27 -39l-52 -165q-13 -45 -18 -97q-3 -32 -27 -41q-24 0 -127.5 69t-132.5 69q-7 0 -8 -4q0 3 -1 -49t-1 -93q0 -155 12 -164q18 -12 51 -12q20 0 68.5 6t75.5 6 q88 0 147 -51q80 -69 81 -219q0 -60 -19 -200v2q0 -23 -72 -138q-88 -142 -177.5 -188t-164.5 -62l-10 -2q-6 -5 -11 -182q-4 -168 -42 -168q-37 9 -37 153q0 25 1 70.5t1 63.5q0 49 -6 61q0 6 -159 58q-168 55 -226 55q-13 0 -62 -184q-65 5 -65 61zM176 1059 q0 -82 40 -138q44 -61 118 -61q34 -6 51 -6q57 0 58 88q0 15 -2 61t-2 76q0 32 1 66t1 39q0 18 -7 33q-12 22 -145 22q-53 -10 -84 -63q-29 -49 -29 -117zM508 571q0 -28 2 -85.5t2 -86.5v-247q11 -20 49 -21q61 0 113 43q42 34 68 148q22 97 22 192q-43 139 -156 139 q-15 0 -41 -4q-39 -6 -50 -24q-9 -13 -9 -54z" />
<glyph unicode="&#x26;" horiz-adv-x="1544" d="M29 492q0 4 2 51q4 100 86 194q87 101 214 125l-6 4q-95 82 -91 264q1 123 123 211q111 79 263 95q125 0 210 -36q98 -40 98 -114q0 -24 -8.5 -44.5t-43.5 -57.5q-44 -47 -73 -47q-24 48 -55 90q-63 87 -123 102q-24 6 -42 6q-72 0 -120 -58q-45 -55 -45 -130 q0 -33 14 -72q34 -92 124 -133q25 -12 177 -53q70 -19 131 -54q9 -5 47 -63l102 -162q79 -119 107 -122q30 14 64 83q3 6 100 230q57 131 154 131q75 0 133 -80q0 -46 -21 -106q-22 -65 -45 -68q-22 0 -61 33t-62 33q-9 -3 -29 -11q-13 -22 -93 -194q-19 -32 -53 -92 q-37 -66 -37 -120q0 -61 51 -123q54 -65 114 -65q40 0 82 46q77 84 99 83q26 0 32 -39q-195 -264 -303 -264q-135 0 -241 174q-16 26 -17 27q-26 0 -82 -58q-170 -176 -362 -175q-137 0 -238 55q-276 151 -276 504zM240 514q0 -97 55 -197q125 -225 330 -225q10 0 127 14 q82 10 188 148q0 8 -8 24q-11 24 -23 41q-38 61 -49 101q-44 156 -185 269q-135 110 -265 110q-38 -11 -93 -78q-77 -93 -77 -207z" />
<glyph unicode="'" horiz-adv-x="190" d="M55 1217q0 42 64 217q44 0 67 -77q6 -22 21 -116q1 -6 4 -16q0 -41 -21 -102q-25 -68 -51 -72q-84 44 -84 166z" />
<glyph unicode="(" horiz-adv-x="536" d="M10 664q0 364 229 586q130 127 253 159q69 0 69 -64q-1 -9 -53 -63q-256 -265 -256 -622q0 -198 154 -390q40 -44 110 -127q53 -65 55 -108q3 -37 -39 -37q-65 0 -186 91q-136 101 -226 238q-110 168 -110 337z" />
<glyph unicode=")" horiz-adv-x="702" d="M14 22q0 23 55 95q154 199 185 245q101 158 102 277q3 260 -193 537q-1 1 -79 106q-53 71 -53 94q0 30 55 27q46 -2 146 -62q146 -86 235 -228q122 -194 118 -466q-2 -208 -174 -418.5t-354 -230.5q-43 0 -43 24z" />
<glyph unicode="," horiz-adv-x="540" d="M29 51q37 58 68 101q76 102 112 110q36 0 118 -71q86 -75 87 -122q-81 -86 -143 -148q-149 -153 -177 -167q-8 -6 -27 -6q-32 0 -32 53l115 119q-2 27 -56 58q-56 34 -65 73z" />
<glyph unicode="-" d="M2 532q48 137 111 190q69 57 202 56h84q15 0 45 2t46 2l649 6q-38 -166 -108 -221q-55 -45 -173 -45q-18 0 -58.5 1t-64.5 1q-18 0 -170 -2t-252 -2q-228 0 -311 12z" />
<glyph unicode="." horiz-adv-x="536" d="M31 125l176 158q207 -125 207 -173q-1 -10 -62 -61q-37 -30 -106 -88q-30 0 -124 74q-91 73 -91 90z" />
<glyph unicode="/" horiz-adv-x="1034" d="M-6 43l707 1122q44 56 65 88q57 88 79 112q53 55 122 54q71 0 184 -55q-61 -81 -395 -620q-84 -137 -232 -378q-104 -168 -120 -190q-46 -65 -93 -130q-61 -69 -139 -68q-74 0 -178 65z" />
<glyph unicode="0" horiz-adv-x="858" d="M10 434q0 148 102 253q99 102 252 124q29 4 44 4q102 0 194 -66q82 -59 99 -120q32 -115 32 -227q0 -177 -86 -290q-88 -116 -250 -139q-236 0 -324 145q-63 102 -63 316zM174 459q0 -151 61 -277q63 -131 146 -131q15 0 88 37q18 6 47 25q26 24 41 114q0 168 -54 317 q-68 183 -180 183q-26 0 -34 -4q-64 -28 -96 -136q-19 -60 -19 -128z" />
<glyph unicode="1" horiz-adv-x="604" d="M-69 727q0 13 12 35q5 16 104 28q90 11 359 49q47 0 47 -128v-111q0 -77 1 -190.5t1 -151.5q0 -196 -15 -240q-34 -104 -182 -131q-16 40 -16 97q0 38 19 207t19 307q0 77 -6 164q-5 71 -91 71q-27 0 -171 -28q-30 -6 -45 -6q-36 0 -36 28z" />
<glyph unicode="2" horiz-adv-x="813" d="M22 592q0 98 62 143q90 67 225 82q36 4 57 4q120 0 209 -67q96 -73 97 -189q0 -100 -85 -194q-15 -16 -161 -144q-41 -36 -53 -57q47 1 211 7q146 5 194 6q43 0 53 -11q6 -52 6 -92q0 -62 -16 -82q-11 -14 -39 -14q-8 0 -100 13q-95 13 -190 15q-96 1 -219 -4 q-131 -6 -148 -6q-69 0 -70 37q0 41 150 131q278 167 278 332q0 42 -20 91.5t-82 82.5q-59 31 -123 31q-65 0 -98 -35q-8 -9 -27 -23l-10 -6q-22 -14 -23 -49q0 -12 33 -44t33 -56q-1 -35 -33 -35q-31 0 -70 37q-41 39 -41 96z" />
<glyph unicode="3" horiz-adv-x="907" d="M2 -536q0 38 45 38q24 0 66 -10q50 -12 65 -14q32 -4 62 -4q207 0 321 205q35 63 35 124q0 126 -156 204q-137 68 -317 68q0 90 65 115q66 18 131 35q53 24 111 103q62 84 62 145q0 97 -71 147q-62 44 -163 44q-92 0 -143 -33q-58 -36 -66 -37q-41 0 -41 31q0 29 74 84 q129 71 272 71q113 0 209 -44q88 -41 121 -101q37 -65 37 -123q0 -92 -101 -211q-29 -34 -84 -59q-65 -28 -87 -47q27 -22 87 -44q47 -18 95 -34q160 -68 159 -238q0 -153 -112 -289q-97 -120 -199 -145q-169 -41 -235 -41q-69 0 -146 21q-7 2 -65 10q-31 4 -31 29z" />
<glyph unicode="4" horiz-adv-x="1308" d="M6 45q0 25 80 103q24 28 280 284q144 136 361 344q34 34 94 79q73 55 99 56q33 1 33 -157q0 -30 -1 -132.5t-1 -174.5q0 -88 -2.5 -166.5t-2.5 -81.5q0 -34 10 -41q8 -6 46 -6q17 0 55.5 2t58.5 2q123 0 123 -70q0 -20 -8 -43q-20 -57 -45 -88q-8 0 -14 2q-26 4 -77 14 q-105 15 -128 15h-18q-3 -15 -3 -338q0 -183 -8 -201q-13 -30 -46 -63q-40 -40 -73 -39q-44 0 -59 65q-1 20 -2 94q-3 240 -14 492q-16 26 -328 26q-75 0 -213 -1t-189 -1q-8 14 -8 25zM236 174q77 -10 256 -10q239 0 249 10q5 7 13 43q2 32 2 191q0 252 -2 295z" />
<glyph unicode="5" horiz-adv-x="694" d="M-80 -492q0 11 31 63q34 57 51 56q36 -5 98 -65q59 -58 109 -58q109 0 197 185q73 153 73 252q0 148 -129 264q-36 32 -250 172q-125 82 -124 135q0 20 20 61q15 27 51 95q82 169 142 213q28 22 102 28q1 0 67.5 3.5t116.5 3.5q197 0 197 -60q-11 -72 -99 -72 q-24 0 -97.5 8.5t-119.5 8.5q-77 0 -137 -19q-8 -1 -65 -87.5t-60 -102.5q3 -29 107 -64q50 -30 129.5 -64t108.5 -50q219 -129 219 -408q0 -317 -308 -553q-80 -61 -227 -61q-170 0 -203 116z" />
<glyph unicode="6" horiz-adv-x="1067" d="M-14 610q0 128 32 268q31 131 140 289q116 168 227 219q80 36 172 35q38 0 131 -10t155 -10q0 -79 -97 -90q-58 -3 -169 -27q-86 -36 -190 -157q-115 -132 -123 -232q14 4 33 10q189 67 288 68q219 0 302 -236q41 -117 41 -245q0 -224 -121 -384q-123 -163 -303 -163 q-69 0 -131 22q-150 55 -255 199q-132 183 -132 444zM234 635q0 -62 22 -160q49 -214 174 -314q75 -61 155 -67q115 25 116 121q0 11 -1 33.5t-1 36.5q0 106 -17 222q-19 135 -49 179q-38 57 -112 91q-66 32 -128 32q-19 0 -47 -7q-113 -27 -112 -167z" />
<glyph unicode="7" horiz-adv-x="1253" d="M31 618q0 57 31 117q34 67 81 74q286 -5 713 -23q63 -6 123 -6q24 0 55.5 1t40.5 1q52 0 62 -34q-1 -24 -31 -76q-25 -38 -90 -152q-229 -385 -557 -952q-61 -112 -95 -149q-44 -49 -102 -50q-37 0 -75 15q-21 7 -21 24q0 18 74 102q57 66 199 246q13 19 59 98l96 168 q131 236 186 309q13 18 92.5 150t84.5 144q-2 19 -93 18h-65l-492 2q-154 0 -174 -47q-4 -15 -23 -35q-15 -10 -35 -10q-44 0 -44 65z" />
<glyph unicode="8" horiz-adv-x="1015" d="M-22 447q0 155 83 233q31 29 154 90q-8 8 -32 29q-125 104 -126 233q0 174 99 273.5t272 99.5q147 0 252 -66q117 -73 133 -202q6 -49 6 -80q0 -78 -34 -124q-17 -22 -90 -79q-43 -33 -79 -66q24 -24 68 -50q37 -22 74 -43q102 -68 131 -187q9 -34 8 -74q0 -137 -83 -251 q-108 -146 -326 -201q-33 -9 -82 -9q-148 0 -265 92q-135 105 -157 285q-6 49 -6 97zM181 526q0 -86 42 -188q84 -197 369 -197q32 9 58 67q28 60 28 134q-1 103 -58 174q-49 62 -186 121q-80 35 -158 35q-96 -14 -95 -146zM254 1116q0 -100 61 -174q69 -83 185 -84 q94 49 94 184q0 99 -54 169q-60 77 -163 77q-123 -18 -123 -172z" />
<glyph unicode="9" horiz-adv-x="937" d="M-8 432q0 173 75 273q43 56 140 99q100 44 195 44q65 0 104 -19q289 -136 289 -573q0 -15 -1 -42q-1 -31 -2 -44q-7 -470 -315 -704q-135 -102 -288 -103q-108 0 -109 64q5 32 94 39q99 7 149 44q86 62 173 226q96 179 96 315q0 40 -9 68q-20 -2 -112 -44 q-98 -42 -170 -42q-55 6 -121 46q-88 53 -143 140q-45 72 -45 213zM191 547q0 -179 84 -284q72 -90 168 -90q58 0 96 37q40 40 40 107q0 39 -8 87q-5 30 -14 86q-13 109 -106 182q-76 59 -146 61q-95 -32 -108 -117q-6 -38 -6 -69z" />
<glyph unicode=":" horiz-adv-x="545" d="M65 660q40 45 73 77q77 78 102 82q194 -124 194 -168q0 -9 -55.5 -66.5t-95.5 -90.5q-27 0 -121 74q-90 72 -97 92zM67 152q0 21 85 103q82 81 96 81q19 0 102 -82q84 -84 84 -113q-12 -23 -162 -149q-26 0 -110 63.5t-95 96.5z" />
<glyph unicode=";" horiz-adv-x="551" d="M49 653q0 24 76 95q73 69 90 71q23 0 110 -75.5t87 -88.5q-1 -11 -54 -59q-35 -30 -108 -96q-20 0 -102 57q-88 62 -99 96zM67 110q28 50 56 87q65 90 115 104q21 0 103 -66q89 -71 89 -110q-131 -131 -301 -283q-21 -4 -27 -4q-29 0 -29 49l110 109q-5 10 -58 49 q-50 36 -58 65z" />
<glyph unicode="?" horiz-adv-x="1048" d="M35 797q0 212 129 350q133 143 231 204q107 67 279 107q34 9 67 9q153 0 261 -136q103 -127 102 -287q-2 -199 -149 -402q-121 -166 -301 -290q-162 -112 -248 -112q0 17 12 26l27 21q13 9 79 69q131 116 177 185q192 286 192 542q0 140 -60 193q-83 73 -190 73 q-121 0 -238 -78.5t-173 -197.5q-27 -56 -27 -151q0 -110 37 -283q7 -31 6 -39q-1 -20 -41 -49q-42 -31 -76 -31t-47 33q-49 121 -49 244zM354 67q0 18 46.5 65t72.5 57q22 0 78.5 -52.5t56.5 -75.5q-27 -31 -118 -110q-25 0 -79 43q-57 45 -57 73z" />
<glyph unicode="A" horiz-adv-x="1234" d="M-55 22q0 31 14 31q-3 0 10 -2l7 -4q8 -4 16 -4q16 0 39 16q18 13 147 516q6 23 15 23q44 187 180 694q-2 19 -56 27q-105 7 -210 15q-144 21 -144 94q242 -14 610 -29h13q120 0 272 18q160 19 188 19q74 0 95 -52q-37 -27 -111 -37q-40 -5 -45 -8q-14 -8 -14 -43 q0 -95 50 -352q46 -236 60 -268l2 -10l58 -316q47 -230 88 -258q12 -9 54.5 -9.5t59.5 -13.5q29 -19 29 -73q-49 -10 -74 -10q2 0 -71.5 9t-204.5 9q-94 0 -153 -8t-54 -8q-25 24 -25 45q0 28 74 45q83 20 99 41q-68 521 -95 549q-88 -3 -307 -33q-256 -35 -281 -62 q-19 -58 -44 -176q-39 -180 -39 -297q5 -41 35 -41q8 0 39.5 4t57.5 4q29 -7 29 -77q-25 -4 -411 -29q-2 35 -2 61zM334 776q8 -2 51 -2q189 0 465 29q-3 105 -58 310q-52 187 -67 200h-45q-30 0 -104.5 -2t-102.5 -2q-121 -457 -139 -533z" />
<glyph unicode="B" horiz-adv-x="1409" d="M-75 1272q0 22 16 41q13 18 41 18q15 0 100 -22q77 -21 152 -21q127 0 209 45q26 17 98 51q172 69 280 70q129 0 229 -68q116 -79 140 -225q4 -25 4 -64q0 -176 -186 -296q-15 -9 -43 -27q146 -36 242 -162q87 -112 87 -228v-5q-2 -276 -203 -355q-135 -53 -280 -53 q-135 0 -374 64q-70 18 -159 18q-24 0 -73 -4l-187 -33q-8 0 -19 16t-11 29q0 15 18 31l240 68q10 21 10 190q0 188 -15 440t-30 332q-12 63 -87 86q-8 3 -132 21q-67 9 -67 43zM465 331q0 -148 43 -202q54 -68 217 -68q130 0 209 39q134 66 134 310q0 16 -1 31 q-8 151 -195 231q-49 22 -139 51q-75 25 -90 51q0 16 50 31q28 8 89 32q133 67 146 207q0 121 -69 194t-181 73q-13 0 -45 -4q-98 -13 -138 -101q-30 -68 -30 -204q0 -40 3 -118t3 -114q0 -117 -3 -261t-3 -178z" />
<glyph unicode="C" horiz-adv-x="1201" d="M4 786q0 230 139 395q106 126 278 198q130 55 214 55q143 0 268 -101q28 -24 80 -65q37 -29 59 -29q3 0 66 44q61 42 66 46q39 0 57 -55l-293 -248q-14 6 -57 51q-216 225 -365 225q-108 0 -205 -209q-90 -193 -90 -358q39 -278 205 -464q168 -189 387 -189q22 0 189 88 q174 92 209 92v-170q0 -422 -33 -421h-64q2 94 2 173v195h1q1 -3 -127 -27q-142 -26 -308 -26q-284 0 -459 141q-108 88 -169 310q-50 181 -50 349z" />
<glyph unicode="D" horiz-adv-x="1337" d="M-100 -106q0 51 32 117q38 77 92 112q37 23 144 37q7 1 23 6v-3l1 150q1 169 1 312q0 530 -12.5 555t-131.5 49q-31 6 -86 18q-43 17 -43 39q0 47 37 47q273 -67 340 -67h12q137 154 324 157h11q235 0 382 -167q168 -191 168 -547q0 -290 -121 -500q-132 -229 -344 -229 q-18 0 -230.5 25.5t-275.5 25.5q-100 0 -154 -40q-81 -59 -120 -225q-15 0 -33 60q-16 51 -16 68zM360 1122q0 -150 17 -570q15 -406 18 -406l448 -42q54 0 106 107q81 169 81 395v6q0 272 -137 471q-140 203 -342 203q-191 0 -191 -164z" />
<glyph unicode="E" horiz-adv-x="1351" d="M4 672q0 162 77 357q64 162 116 212q55 55 186 110q152 64 275 64h4q84 0 309 -178q34 -27 47 -35q98 166 123 166q8 0 29 -13q2 -1 14 -6q-7 -24 -39 -89q-150 -305 -150 -369q0 -6 51 -6q63 0 183 18q0 -16 -25.5 -353t-25.5 -345v-400q-15 -5 -21 -8l-14 -8 q-11 -5 -50 -14v329q-302 -131 -477 -131q-34 0 -49 3q-268 36 -399 199q-102 127 -154 390q-10 51 -10 107zM236 631q50 -228 209 -360q157 -129 374 -130q144 0 268 56q7 24 15 233q3 112 8 267q-5 0 -71 1t-121 1q-677 0 -682 -68zM236 905q7 -39 23 -49q14 -8 60 -8 q478 0 607 28q-42 107 -169 242q-144 152 -245 152h-4q-84 -3 -177 -121q-96 -123 -95 -244z" />
<glyph unicode="F" horiz-adv-x="952" d="M-49 1315q218 113 238 113q38 0 98.5 -63t78.5 -63q6 4 14.5 9.5t14.5 9.5q160 113 298 113q249 -42 249 -85q-82 -329 -82 -445q0 -13 2 -44q1 -28 0 -47q0 -106 -15 -182q-18 -88 -48 -88q-5 1 -17 178l-14 10q-26 19 -53 19h-256q-47 0 -60 -13q-8 -9 -8 -44v-355 q0 1 -1 -16t-1 -33q0 -147 42 -192q36 -40 206 -40q53 0 102 4q47 -3 47 -47q0 -38 -67 -38h-426q-77 0 -161 -8.5t-93 -8.5h-37v68q113 16 144 33q39 22 39 81v590h-163q-15 27 -26 129h82q92 0 111 10v146q0 71 -38 163q-42 103 -92 103q-9 0 -30.5 -8t-36.5 -8 q-41 0 -41 49zM402 901q47 -2 382 -2l39 271q-2 27 -79 68q-87 44 -167 44q-51 0 -83 -18q-92 -53 -92 -94v-269z" />
<glyph unicode="G" horiz-adv-x="1478" d="M-16 629v186q0 195 165 374q216 234 597 234q107 0 249 -100q137 -96 170 -96q22 0 71 23.5t64 23.5q30 0 41 -53l-350 -173q-28 12 -73 56q-28 27 -91 84q-130 112 -273 112h-3q-75 0 -144 -44q-55 -36 -84 -80q-44 -67 -87 -134q-41 -74 -41 -155v-135q0 -206 147 -379 q156 -183 373 -199q30 -2 65 -2q224 0 387 82l5 4q8 8 14 20q8 25 8 82q-12 125 -99 213q-71 71 -146 82l-304 -116q-37 26 -37 67q22 4 211 74q198 73 219 90q33 19 121 80l4 2q51 51 78 51q14 0 31.5 -13.5t17.5 -29.5q0 -17 -44 -42.5t-44 -45.5q0 -6 23 -28 q141 -141 141 -285q0 -137 -39 -183q-87 -100 -207 -157q-146 -70 -229 -93q-104 -28 -258 -28q-270 0 -461 187q-189 185 -188 444z" />
<glyph unicode="H" horiz-adv-x="1341" d="M-98 1384q0 41 49 42l176 -31q203 23 202 22q58 0 58 -64q0 -13 -3 -32t-3 -23v-411q7 4 23 17t59 42q102 64 246 64q158 0 308 -91q218 -133 218 -397q0 -90 -49 -270l-33 -119q-15 -50 -14 -60q0 -6 6 -8q12 0 91.5 50.5t92.5 50.5q10 0 23.5 -16.5t13.5 -26.5 q0 -28 -113 -82q-58 -31 -116 -63q-77 -39 -119 -39h-2q-14 0 -31.5 12t-17.5 27v-2q3 0 25 134q24 148 24 281v103q0 203 -96.5 319.5t-261.5 116.5q-72 0 -164 -52q-108 -61 -109 -139v-608q0 -46 37 -58q20 -7 80 -8h256q12 -12 12 -28q0 -15 -8 -35q-17 -13 -35 -16h-8 q-20 -4 -53 -4q-39 0 -169 9q-112 7 -166 7h-12q-49 -1 -354 -16v63q208 0 207 90l-12 893q0 49 -14 162q-13 100 -46 125q-15 11 -114 27q-84 13 -84 42z" />
<glyph unicode="I" horiz-adv-x="786" d="M-119 1343q0 14 17 34t33 22q87 -13 315 -37q53 -4 112 -4q157 0 172 51q1 14 6 41q3 29 41 35q33 0 33 -62q0 -47 23 -47t88 17h51v-44q0 -40 -69 -40h-33q-63 0 -64 -35v-1147q0 -37 101 -47q120 -12 120 -52q0 -36 -35 -36q-172 30 -211 30h-120l-506 -49v70 q106 6 170 14q96 13 128 52t32 145v754l-25 197q-13 52 -39 77q-14 5 -180 14q-160 9 -160 47zM469 123q0 -15 57 -19v1180q-34 -18 -57 -41v-1120z" />
<glyph unicode="J" horiz-adv-x="726" d="M-123 1421q0 11 19 22t35 11q12 0 47 -28q78 -53 266 -54q92 0 162 37q77 40 96 41q53 0 53 -39v-1247q0 -119 -125 -290q-151 -205 -340 -205q-65 0 -114 43q-43 39 -43 81q0 17 21 60q24 49 44 49q9 0 78 -46.5t131 -46.5q49 0 87 64q32 53 31 90v1030q0 49 -14 152 q-20 139 -49 141q-10 -2 -53 -2q-119 0 -208 26q-123 36 -124 111z" />
<glyph unicode="K" horiz-adv-x="1288" d="M-119 1399q0 49 62 49q20 0 98 -18q69 -16 146 -17q33 0 97 7.5t95 7.5q13 0 25.5 -1t17.5 -1q10 0 39 6q38 8 51 8q32 0 43 -19q16 -29 16 -43q0 -35 -59 -35q-15 0 -50.5 3t-51.5 3q-37 0 -46 -12q-18 -28 -18 -96q0 -13 1 -95t1 -157v-49q0 -179 29 -182q36 0 108 75 q26 28 49 45q94 71 305 259q90 79 236 196q4 4 8 6l10 8q62 49 91 50q36 0 51 -39q8 -21 8 -35q0 -28 -34 -43q-22 -8 -79 -31q-82 -34 -204 -154q-40 -38 -73.5 -64.5t-141.5 -119.5q-33 -22 -70 -59q0 -34 41 -90q31 -37 92 -121q44 -69 152 -227q63 -92 98 -138 q59 -77 113 -124q48 -42 110 -64q36 -13 46 -22q15 -14 18 -50q-136 -8 -222 -8q-79 0 -102 8q-36 14 -98 101q-96 150 -302 442q-98 130 -130 134q-100 -26 -101 -177q0 -332 21 -389q5 -9 14 -27q18 -29 107 -29q14 0 38.5 1t32.5 1q22 0 33 -6q43 -25 43 -45 q0 -34 -135 -34q-38 0 -108 3t-91 3q-118 0 -233.5 -15.5t-122.5 -15.5q-36 0 -47.5 20t-11.5 31q0 55 147 55q53 0 82 -4q12 49 12 318v43q0 539 -4 669q-3 112 -18 177q-14 59 -35 79q-102 21 -186 21q-12 12 -13 27z" />
<glyph unicode="L" d="M-121 1397q0 9 19 31q13 10 37 10q5 0 131.5 -20.5t260.5 -20.5q129 0 234 15.5t109 15.5q30 0 55 -21q19 -14 19 -31q0 -44 -95 -49q-19 1 -42 1q-55 0 -137 -5q-24 -3 -27 -25l-2 -1020q0 -125 20 -172q10 -22 57 -22q15 0 94 8q404 41 494 105q7 5 24 22l9 10 q26 33 110 41v-575h-77q0 71 1 146t1 86q0 56 -17 69q-13 4 -64 4q-20 0 -66.5 -1t-67.5 -1h-500l-183 -14q-38 -3 -184 -13q-78 -4 -84 -4q-65 0 -73 21q-4 16 -4 22q0 32 47 41q15 3 87 6q60 3 83 9q40 10 47 38v1190q-13 16 -52 25q-41 8 -151 30q-27 5 -74 15 q-38 13 -39 33z" />
<glyph unicode="M" horiz-adv-x="1618" d="M-98 2q0 24 53 44q37 11 73.5 23.5t51.5 18.5q18 10 75 498l66 588q0 106 -102 106q-22 0 -63 -4t-56 -4q-51 0 -51 45q31 30 159 30q181 0 209 13q24 16 191 72q33 -55 33 -64q0 -19 -43 -25q-26 -6 -90 -34q83 -110 266 -545q79 -188 123 -301q17 -37 40 -109 q47 123 205 489q161 374 191 427q12 22 12 30q0 13 -28 13q-11 0 -37.5 -2t-38.5 -2q-63 0 -64 44q0 9 4 23q7 22 33 23q3 0 20 -1t31 -1q46 0 88 6q116 18 144 22q86 15 143 36q16 4 20 4q11 0 25 -4q22 -7 22 -44q0 -22 -16 -31q-6 0 -70 -15q-69 -17 -77 -24 q-2 -1 -2 -71q0 -198 36 -709q34 -492 44 -494q34 -11 133 -22q78 -9 78 -49q0 -8 -2 -12q-2 -11 -2 -10q-3 -17 -39 -17q-61 0 -275 53q-34 0 -102.5 -23.5t-99.5 -23.5q-51 0 -64 62q101 15 138 46q30 26 30 77q0 24 -9.5 99.5t-9.5 131.5q0 587 -51 690 q-62 -92 -260 -577q-94 -231 -139 -332q-69 -152 -96 -152q-23 3 -36 55t-38 154q-25 97 -161 437q-159 395 -220 439q-42 -135 -129 -1003q117 -25 223 -53q0 -72 -74 -72q-31 0 -83 11q-63 13 -82 16q-36 4 -50 4q-57 0 -102 -20q-43 -25 -53 -25t-22 8q-23 19 -23 37z " />
<glyph unicode="N" horiz-adv-x="1476" d="M-164 1368q0 18 10 33q9 20 187 43q122 17 148 17q38 0 38 -27q0 -3 -3 -20t-3 -30q0 -79 110 -177q132 -123 480 -443q371 -339 426 -379q14 57 14 469q0 430 -14 459q-18 24 -95 24h-43q-65 0 -65 49q9 27 65 27q9 0 40.5 -1t54.5 -1q122 -1 206 7q76 7 76 8h-1 q49 0 49 -46q0 -28 -19 -39q-5 -2 -39 -8q-115 -21 -115 -65v-1325q-86 0 -112 114q-233 233 -459 426q-11 9 -106 107q-157 159 -211 211q-160 154 -207 170q-14 -258 -14 -326q0 -115 -1 -240t-1 -145q0 -106 20 -138q29 -44 131 -44q22 0 61.5 2t53.5 2q49 0 59 -17 q8 -13 8 -20q0 -45 -163 -45q-22 0 -65 1t-61 1q19 0 -47 -2q-22 -1 -98 -10q-72 -8 -109 -8q-89 0 -89 37q0 8 2 12l2 8q20 41 49 41q12 0 35.5 -7.5t35.5 -7.5q13 0 41 10q39 22 39 547q0 372 -8 424q-7 68 -35 222q-5 26 -14 65q-5 31 -41 31q-27 0 -82 -13.5t-80 -13.5 q-41 0 -41 31z" />
<glyph unicode="O" horiz-adv-x="1482" d="M-24 633v168q0 123 68 266q87 180 241 260q53 30 143 74q54 22 117 22h6h184q253 0 432 -202q174 -195 174 -453v-162q0 -282 -220 -471q-189 -164 -390 -164h-146q-250 0 -429.5 193.5t-179.5 468.5zM201 725q0 -143 94 -317q32 -109 167.5 -210.5t244.5 -101.5h118 q126 0 204 154q73 141 73 335q0 327 -143 525q-145 203 -394 203q-207 0 -305 -191q-59 -117 -59 -227v-170z" />
<glyph unicode="P" horiz-adv-x="1310" d="M-176 1290q0 39 45 39q294 -59 387 -59q21 0 55 24q22 18 72 55q114 86 231 87h125q158 0 303 -135q158 -148 158 -342v-140q0 -160 -163 -343q-173 -196 -359 -196h-109l-190 39q-20 -7 -21 -32v-177q0 -49 25 -49h252q131 0 272 -25q137 -24 137 -44q0 -35 -36 -39 l-260 29h-519q-41 0 -143.5 -14.5t-152.5 -14.5q-35 0 -44 5q-11 8 -12 40q0 36 74 39q46 0 147 8q57 9 58 193v436q0 36 -24 240q-27 233 -46 282q-9 22 -129 43q-60 11 -88 19q-44 12 -45 32zM348 760q0 -174 33 -232q34 -42 189 -93q138 -46 184 -46q106 0 175 182 q52 139 52 254q0 211 -113 347q-118 141 -317 141q-98 0 -158 -66q-44 -49 -45 -90v-397z" />
<glyph unicode="Q" horiz-adv-x="1583" d="M-35 725q0 42 22 154q24 122 44 163q105 212 261 301q150 86 398 87q338 0 528 -218q171 -196 183 -513q1 -15 1 -30q0 -104 -30 -215q-35 -131 -94 -206q-52 -67 -111 -111l-16 -12q-16 -12 -17 -21q0 -1 21 -8q149 -75 182 -171q18 -51 28 -143q13 -105 21 -142 q35 -148 170 -148q56 0 92 68.5t58 68.5q7 0 51 -26q-94 -219 -311 -219q-133 0 -198 70q-51 55 -70 167q-13 99 -27 198q-15 94 -52 137q-45 52 -135 52h-3q-20 0 -88 -12t-125 -12q-783 0 -783 741zM164 862q0 -315 167 -547q181 -252 464 -252q193 0 301 189 q94 164 94 406v10q-1 259 -161 460q-173 219 -433 219q-195 0 -310 -123q-122 -130 -122 -362z" />
<glyph unicode="R" horiz-adv-x="1273" d="M-172 1292q0 47 41 47q5 0 14 -2q62 -12 125 -22q153 -25 224 -25h118q12 0 37 21q19 16 66 51q109 73 270 74q191 0 317 -113q129 -115 130 -295q0 -119 -46 -196q-42 -70 -141 -135q-32 -21 -96 -64q70 -127 188 -289q57 -75 148 -201q42 -67 118 -74q47 -4 49 -4 q25 -7 25 -34q0 -17 -6 -23l-12 -20h-312q-57 0 -174 182q-173 271 -250 348q-108 108 -247 109q-6 -452 -6 -467q0 -70 38 -91q25 -13 103 -14h158q41 0 41 -37q0 -53 -68 -53l-178 17h-307l-242 -23q-47 0 -47 49q0 41 180 47q40 1 47 6q40 13 41 258v539q0 48 -12 163 q-18 162 -43 190q-15 15 -160 29q-131 13 -131 52zM402 928q0 -221 247 -221q110 0 183 66q77 71 77 190q0 142 -74 229q-81 96 -231 96q-203 0 -202 -201v-159z" />
<glyph unicode="S" horiz-adv-x="1242" d="M-127 -268q38 92 119 348q24 196 63 196q36 -36 216 -135q243 -133 384 -133q53 0 86 16q97 48 150 204q37 108 37 190q0 113 -45.5 178.5t-126.5 65.5q-47 0 -283 -66q-243 -68 -315 -68q-104 0 -163 86q-52 77 -52 193q0 259 128 437q134 186 346 186h9 q88 -2 239.5 -118t153.5 -116q4 0 56 84t80 84q16 0 32.5 -16.5t16.5 -38.5q-25 -25 -105 -156q-100 -167 -100 -239q0 -10 38 -11q156 -42 220.5 -120t64.5 -230q0 -253 -136 -437q-156 -208 -423 -214h-14q-157 0 -434 61q-55 13 -64 13q-21 0 -61 -138q-11 -37 -31 -100 q-20 -53 -37 -53q-9 0 -29 15.5t-20 31.5zM135 965q0 -82 37 -135q41 -60 115 -60q59 0 222 47q168 49 212 82q-296 399 -402 399q-92 0 -141 -103q-42 -90 -43 -230z" />
<glyph unicode="T" horiz-adv-x="1226" d="M-69 1122q0 73 40 146q57 98 248 98q61 0 325 -11.5t400 -11.5q281 0 281 37q0 9 -16.5 32t-16.5 36t10 23q75 57 102 57q26 0 44 -27q16 -24 16 -51q0 -70 -106 -158q-46 -38 -95 -55q-96 -35 -245 -35q-154 0 -162 -24v-1028q0 -57 147 -60q40 0 111 -2q57 -5 57 -39 q0 -15 -12 -35q-255 6 -457 6q-98 0 -208.5 -24.5t-131.5 -24.5q-55 0 -55 72l311 53q33 22 33 287l-2 596q-3 142 -17 191q-12 43 -61 43h-74q-2 0 -42 1t-72 1q-191 0 -235 -28t-44 -94v-55q-73 0 -73 84z" />
<glyph unicode="U" horiz-adv-x="1360" d="M-150 1376q133 0 223.5 18.5t92.5 18.5q61 0 61 -84q0 -18 -3 -99.5t-3 -148.5q0 -49 -1 -142t-1 -136q0 -293 41 -418q79 -237 323 -237h2q94 0 179 33q104 42 152 124q47 100 47 315q0 100 -12 221q-4 39 -9 204q-3 127 -20 200q-4 19 -50 64l-14 14q-31 26 -31 45 q0 15 23 29q123 31 243 31q23 0 35 -7q22 -20 23 -264v-621q0 -203 31 -285q41 -111 169 -153q-8 -35 -46 -62q-42 -30 -94 -30q-56 0 -107 35q-63 42 -98 115q-11 22 -16 27q-11 16 -25 18q-65 -60 -125 -104q-117 -88 -189 -95q-25 -3 -115 -20q-72 -13 -118 -13 q-150 0 -287 133q-61 59 -88 177q-35 147 -35 436q0 417 -12 467q-16 66 -80 100q-38 21 -49 34q-16 20 -17 60z" />
<glyph unicode="V" horiz-adv-x="1093" d="M-152 1364q0 13 9 26q21 14 256 56q38 0 63 -60q15 -44 56 -157q306 -779 386 -920q334 757 335 811q0 10 -9 41q-26 100 -26 154q0 12 20 78v-5q0 5 37 19q39 14 75 14h5q42 0 58.5 -7t16.5 -27q0 -83 -155 -476l-332 -844q-44 -111 -76 -122q-72 0 -104 128 q-16 65 -191 506q-190 479 -254 584q-49 79 -118 141q-13 11 -35 31q-16 16 -17 29z" />
<glyph unicode="W" horiz-adv-x="1927" d="M-148 1364q0 4 7 16q10 8 116.5 35t132.5 27q24 -4 169 -337q133 -307 168 -410q15 -48 78 -182q72 -154 110 -204q21 20 39 76q14 51 59 186q43 114 86 226t49 129q38 103 62 186q16 57 54 150q42 100 56 104q28 0 189 -368q127 -290 176 -421q9 -24 53 -116 q55 -114 78 -144q33 82 133 409q98 316 107 361q6 34 6 66q0 38 -9.5 113t-9.5 116q113 33 191 33q0 -52 -126 -475q-115 -392 -165 -530q-40 -115 -82 -230q-71 -181 -110 -188q-20 0 -46 55q-17 41 -68 150q-185 365 -243 549q-57 181 -121 270q-28 -31 -161 -398 q-75 -211 -150 -421q-24 -69 -60 -166q-15 -41 -49 -51q-32 0 -386 772q-32 68 -97 243q-50 135 -74 177q-162 139 -162 192z" />
<glyph unicode="X" horiz-adv-x="1238" d="M2 65q0 30 108 50q28 5 42 10q26 11 101 95q73 81 93 118q38 65 107 186q49 86 51 131q-127 241 -287 535q-39 61 -100 61h-27q-35 0 -45 31q0 29 21 48q2 2 42 28q45 29 64 51q9 9 31 23q20 4 29 4q111 0 249 -269q32 -67 90 -182q40 -77 56 -80q10 1 100 160 q28 46 82 137q42 71 76 115q75 96 121 96q24 0 52 -18q31 -20 31 -44q0 -31 -106 -102q-299 -365 -299 -448q0 -34 127 -259q132 -232 197 -300q73 -77 110 -84q9 0 35.5 4t38.5 4q37 0 37 -39q-123 -154 -195 -154q-38 15 -71 32q-80 39 -122 81q-94 97 -173 266 q-23 49 -46 99q-31 62 -59 88q-24 -22 -86 -149q-75 -152 -84 -167q-84 -136 -126 -185q-66 -77 -128 -77q-34 0 -84 35q-53 37 -53 69z" />
<glyph unicode="Y" horiz-adv-x="872" d="M-102 1317q0 23 93 71t136 48q23 -3 84 -119q44 -84 125 -244q173 -344 203 -356q13 11 101 175q95 177 114 247q13 50 32 214q8 68 72 68q18 0 97 -10q0 -58 -23 -109q-13 -28 -41 -93q-96 -238 -229 -457q-71 -118 -72 -232q0 -103 -2.5 -209.5t-2.5 -119.5 q0 -62 19 -83q17 -18 60 -18q10 0 37.5 2t44.5 2q47 0 77 -8q25 -7 25 -39q0 -33 -25 -41q-30 0 -90 3t-90 3q-90 0 -200 -16q-90 -13 -207 -39q-75 -16 -82 -16q-16 0 -31 14q-14 18 -15 33q0 44 146 77l39 8q40 10 47 15q40 27 41 322q0 161 -4 175q-19 70 -109 205 q-127 193 -237 408q-32 61 -96 80q-32 9 -37 39z" />
<glyph unicode="Z" horiz-adv-x="1159" d="M2 8q0 36 67 135q43 58 124 168q49 69 204 264q145 183 170 224q17 27 64 86q24 30 88 115q120 158 155 231q-57 4 -173 4q-113 0 -290 -3l-166 -3h1q-65 -10 -142 -22q-15 -14 -22 -27q-26 -33 -45 -33t-27 29q0 13 14 109q15 107 25 116q28 27 396 27q172 0 454 -5h27 q39 0 75 2q51 3 50 3q26 0 34 -31q4 -8 4 -15q0 -16 -41 -67q-67 -85 -126 -178q-191 -253 -473 -639q-16 -23 -126 -152q-67 -79 -83 -139q193 0 352.5 4t167.5 4q62 0 114 -8q75 -4 207 -20q98 -22 109 -128q-3 -104 -9 -180q-12 -183 -29.5 -195.5t-29.5 -12.5 q-27 0 -27 46q0 20 8.5 87.5t8.5 101.5q0 29 -6 53q0 10 -41 21q-61 15 -219 18q-120 2 -566 2q-113 0 -188 -8l-74 -8q-16 5 -16 24z" />
<glyph unicode="\" horiz-adv-x="1236" d="M16 1384q114 55 185 56q68 0 121 -55q22 -23 80 -111q21 -32 65 -88l707 -1123q-104 -65 -179 -65q-77 0 -138 69q-46 65 -93 130q-17 22 -121 190l-231 377q-335 540 -396 620z" />
<glyph unicode="_" horiz-adv-x="1366" d="M-8 -420q48 137 111 189q69 57 202 57h84q13 0 43.5 2t46.5 2l1041 -4q-43 -150 -102 -200q-62 -54 -203 -54h-101q-5 0 -251 -2t-414 -2q-373 0 -457 12z" />
<glyph unicode="`" horiz-adv-x="313" d="M47 1190q18 19 37 19q38 0 154 -77q11 -8 27 -17t48 -65q35 -63 35 -101q-29 -13 -57 -13q-81 0 -127 61q-26 22 -117 193z" />
<glyph unicode="a" horiz-adv-x="993" d="M-2 110q0 89 103 168q69 52 153 82q63 21 174 66q82 40 82 84q0 90 -69 145q-59 47 -132 48q-15 0 -54 -14q-46 -15 -46 -27q0 -7 29.5 -19t29.5 -35q0 -17 -44 -38q-47 -23 -91 -23q-75 0 -113 67q-10 13 -10 35q0 72 153 128q131 48 245 48q84 0 196 -50 q137 -62 137 -142v-395q0 -25 15 -55q16 -34 36 -44q61 -28 109 -41q28 -7 29 -35q0 -24 -50.5 -54.5t-82.5 -30.5q-132 0 -212 57q-16 14 -46 40q-22 15 -33 15q-14 0 -39 -17q-20 -13 -51 -40q-89 -60 -199 -60q-117 0 -168 31.5t-51 105.5zM227 185q0 -94 86 -95 q46 0 99 37q92 65 92 194q0 24 -4 48q-104 -42 -182 -91q-91 -58 -91 -93z" />
<glyph unicode="b" horiz-adv-x="962" d="M-59 1288q0 27 69 33q35 2 94 6q135 67 156 68v-709q31 5 123 68q105 71 176 71q143 0 222 -141q65 -117 65 -282v-5q-2 -236 -172 -338q-102 -61 -109 -64q-55 -26 -126 -26q-158 0 -260 88q-104 89 -104 230v833q0 46 -67 96.5t-67 71.5zM264 309q0 -105 93 -178 q76 -60 145 -60q78 0 128 99q44 86 44 188q0 172 -99 271q-66 66 -112 66q-57 0 -128 -65t-71 -118v-203z" />
<glyph unicode="c" horiz-adv-x="720" d="M-4 329q0 195 94 333q109 159 307 159h2q63 0 162 -38q121 -49 121 -111q0 -30 -107 -109q-7 0 -21 13q-8 8 -15 16q-134 139 -218 139q-58 0 -97 -96q-35 -86 -35 -186v-6q0 -146 69 -238q79 -103 225 -103q46 0 110.5 66t72.5 66q12 0 27.5 -18t15.5 -25 q0 -26 -106 -111q-127 -100 -243 -100q-193 0 -287 110q-77 91 -77 239z" />
<glyph unicode="d" horiz-adv-x="929" d="M6 416q7 413 385 413h2l197 -81v-1q-3 0 -5 92q-3 358 -30 396q-16 23 -73.5 65.5t-57.5 61.5q0 12 109 39q116 28 196 29q55 0 55 -58q0 -11 -3 -31t-3 -26v-1145q0 -28 14 -35q79 49 89 50q41 0 41 -46q0 -24 -41 -43q-24 -12 -82 -45q-1 0 -23 -14l-47 -31 q-72 -47 -80 -47q-51 0 -53 164q-14 -3 -102 -80q-103 -88 -199 -88q-99 0 -183 98q-106 124 -106 347v16zM191 457q0 -135 61 -241q66 -114 162 -114q38 0 101 60q70 65 70 125v237q0 73 -80 148q-68 63 -95 63q-109 0 -167 -85q-51 -75 -52 -193z" />
<glyph unicode="e" horiz-adv-x="737" d="M14 352q0 6 2 41q24 410 392 410q83 0 149 -55q59 -49 72 -49q5 0 32 14t40 14q30 0 30 -39q0 -15 -51 -43q-24 -13 -58 -29q-84 -42 -256 -131q-156 -85 -155 -125q0 -110 65 -185q69 -81 185 -81q53 0 120.5 52.5t86.5 52.5q17 0 39 -41q-34 -39 -111 -117 q-167 -82 -260 -82q-125 0 -215 94q-106 110 -107 299zM217 492q46 18 132 58q92 44 92 52q0 11 -48.5 60t-56.5 49q-77 0 -119 -219z" />
<glyph unicode="f" horiz-adv-x="581" d="M-65 688q0 22 52 56.5t52 47.5v173q0 227 131 345q114 103 301 103h4q43 0 105 -35q67 -38 67 -71q0 -16 -39 -76q-42 -64 -65 -64q-9 0 -33 25q-119 119 -170 119q-96 0 -96 -195v-299q0 -18 21 -22q23 -1 46 -3h14q74 0 74 -42q0 -64 -61 -64q-9 0 -25 1t-24 1 q-57 0 -57 -72v-423q0 -119 -32 -188q-40 -88 -151 -153v740q0 71 -59 72h-23q-32 0 -32 24z" />
<glyph unicode="g" horiz-adv-x="1044" d="M-59 -420q0 93 242 287q-47 11 -94 23q-56 20 -56 65q0 67 105 147l104 79q-13 3 -29 8q-52 9 -98 34q-110 69 -111 228q0 151 117.5 260.5t286.5 109.5q88 0 186 -45q94 -43 105 -43h260v-49q-21 -44 -23 -46q-15 -24 -43 -24q-17 0 -45 6h-117v-77q0 -220 -162 -305 q-8 -5 -24 -11l-45 -16q-291 -106 -291 -174q0 -49 112 -49h349q158 0 243 -78q74 -67 74 -172q0 -170 -153 -278q-156 -111 -408 -111q-3 0 -53 2q-193 8 -284 41q-148 53 -148 188zM94 -354q0 -103 130 -162q114 -51 278 -51q139 0 222 83q68 70 68 157q0 77 -46 117 q-65 53 -232 62q-37 2 -41 2q-154 0 -272 -73q-106 -67 -107 -135zM187 532q0 -126 87 -205q71 -63 146 -63q59 0 97 45t38 113q0 20 -6 49q-24 114 -89 191q-61 73 -122 73q-69 0 -112 -64q-40 -59 -39 -139z" />
<glyph unicode="h" horiz-adv-x="952" d="M-31 1321q0 13 25 16q28 3 131 31q92 24 127 25q29 0 43 -17q-4 -197 -4 -358q0 -297 4 -301q3 3 20 16q117 90 219 90q105 0 210 -77q99 -74 99 -501v-9v-93q19 1 110 72q36 -28 36 -49q0 -24 -45 -49q-28 -14 -90 -50q-35 -24 -69 -47q-48 -30 -74 -30q-21 0 -31 18 q-8 15 -8 86q0 30 1 82t1 62q0 212 -28 307q-44 150 -171 162q-18 0 -86 -33t-76 -45q-4 -4 -4 -97q0 -55 3 -198.5t3 -200.5q0 -68 -2 -92q-54 -30 -198 -84q-8 16 -9 127q0 66 4.5 362t4.5 480v67q0 164 -21 209q-15 34 -104 94q-21 14 -21 25z" />
<glyph unicode="i" horiz-adv-x="618" d="M-24 797q0 13 10 28q124 34 311 74q55 0 55 -64q0 -11 -2 -36t-2 -35v-596q22 3 65 30q41 25 56 25q10 0 16 -6q17 -9 17 -26q0 -24 -41 -50q-20 -11 -49 -28q-60 -44 -189 -121q-32 -21 -42 -21q-18 0 -33 21q-6 12 -7 442v76q0 131 -22 170q-21 36 -105 74 q-38 18 -38 43zM185 1081q0 8 14.5 33.5t50.5 116.5q7 18 22 45q21 24 117 33q69 0 70 -47q0 -57 -78 -135q-81 -81 -154 -87q-42 19 -42 41z" />
<glyph unicode="j" horiz-adv-x="590" d="M-82 -490q0 9 4 29q36 51 56 51q13 0 44 -40t70 -52q20 -4 35 -4q43 0 58 33q47 108 47 288q0 58 -9.5 287t-9.5 416q0 169 -67 213q-39 26 -40 43q20 13 230 49q73 0 74 -116q-1 -66 -13 -136q-14 -79 -14 -202v-17v-221q-11 -409 -45 -520q-23 -73 -54 -112 q-54 -64 -165 -91q-25 -6 -50 -6q-60 0 -104 31q-47 32 -47 77zM299 987q0 13 12 33q11 18 31 63q17 40 33 72q11 21 33 25q113 0 126 -25q0 -24 -57 -88q-50 -56 -75 -74q-42 -28 -68 -28q-27 0 -35 22z" />
<glyph unicode="k" horiz-adv-x="839" d="M-33 1307q0 9 19 14q55 8 141 41q122 34 141 35q20 0 25 -15q4 -29 4 -153q0 -141 -8 -723v-27q156 101 358 232q138 86 162 86q28 0 65 -49q-163 -106 -352 -242q71 -63 98 -154q9 -29 59 -115q57 -97 87 -116q16 -10 24 -11q11 0 37 31q27 34 56 42q49 0 49 -42 q-6 -44 -91 -97.5t-157 -53.5q-26 0 -51 10q-20 8 -135 211q-53 96 -115 195q-16 4 -23 4q-69 0 -69 -185q0 -22 1 -60.5t1 -54.5q0 -47 -4 -61v4q0 -13 -61 -44q-65 -33 -115 -33h-3v1011q0 57 -1 131.5t-1 69.5q0 32 -70.5 70.5t-70.5 48.5z" />
<glyph unicode="l" horiz-adv-x="540" d="M-18 1311q33 22 142 59q110 39 150 39h2q23 0 23 -14q8 -58 8 -336v-64l-4 -854q94 51 113 52q33 -4 33 -27q0 -17 -31 -41q-125 -98 -310 -133q-10 10 -10 307q0 312 4 833q0 46 -98 142q-22 22 -22 37z" />
<glyph unicode="m" horiz-adv-x="1640" d="M-71 680q19 22 80 62q71 46 99 46q42 -5 152 -91q12 -13 20 -17q4 1 136 70q137 71 200 71q69 0 150 -86q18 -20 63 -47l33 21q185 116 287 116h2q76 0 123 -55q121 -142 121 -340q0 -74 -31 -241q-6 -34 -6 -48q0 -10 2 -12q20 5 66 37q42 30 61 31q18 0 31 -16 q6 -13 6 -17q0 -39 -158 -109q-20 -10 -76 -37q-78 -34 -110 -34q-22 9 -23 55q0 23 19 160q4 14 4 69q0 137 -32 256q-38 142 -102 144q-68 -10 -132 -58q-68 -51 -68 -102l2 -377q0 -77 -15 -109q-34 -18 -64 -31q-75 -32 -124 -34q0 91 2 210.5t2 151.5q0 115 -14 146 q0 40 -27 108q-40 104 -110 105q-105 -26 -161 -97q-31 -39 -38 -73q0 4 1 -55.5t1 -112.5q0 -263 -12 -293v2q-4 -15 -75 -53q-75 -41 -116 -41q-14 24 -14 63q0 9 1 50t1 78v114q0 212 -23 278q-26 75 -134 142z" />
<glyph unicode="n" horiz-adv-x="1069" d="M4 709q112 79 156 79q40 -8 84.5 -62t54.5 -56q50 28 107 57q116 63 167 70q260 0 262 -363v-6q0 -52 -15 -160q-16 -119 -17 -149q11 0 67 44t79 44t32 -35q-67 -51 -121 -88q-130 -89 -174 -96q-49 0 -49 39q0 14 4 38q5 28 6 39q4 67 4 123q0 447 -159 447 q-36 0 -107 -41q-37 -21 -45 -48q-10 -28 -11 -126q0 -7 2.5 -52t2.5 -80q0 -350 -195 -364q-4 29 -4 86q0 28 1 106.5t1 122.5q0 281 -45 334q-28 33 -59 52q-29 16 -29 45z" />
<glyph unicode="o" horiz-adv-x="878" d="M-24 354q0 63 8 154q12 137 152 220q73 43 261 99q20 6 42 6q110 0 210 -101q115 -116 115 -285q0 -89 -33 -185q-34 -98 -166 -193q-127 -91 -228 -91h-10q-224 7 -325 207q-26 53 -26 169zM141 475q0 -112 58 -204q77 -124 238 -167q88 0 110 83q12 45 12 223 q0 125 -89 220q-79 85 -159 85q-14 0 -26 -6q-68 -26 -107 -96q-36 -63 -37 -138z" />
<glyph unicode="p" horiz-adv-x="988" d="M-45 778q7 19 33 19q7 0 34 -5.5t47 -5.5q65 7 114 27q44 18 63 18q59 0 59 -51q0 -13 -6 -40t-6 -39q0 -11 10 -11q13 3 100.5 74t181.5 71q40 0 93 -12q44 -22 77 -50q80 -69 95 -163q22 -139 22 -200q0 -112 -65 -232q-27 -49 -110 -104q-88 -59 -156 -66 q-57 0 -128 14q-75 14 -110 15q0 -83 -2 -294t-2 -259q0 -55 82 -55q27 0 76 6t63 6q39 0 39 -24q0 -13 -10 -27q-8 -10 -43 -10q-37 0 -96 -7q-128 -14 -182 -14h-7q-3 -1 -33.5 -7.5t-136.5 -31.5q-10 28 -10 43q0 26 26 33q19 4 37 8q16 13 17 84v655v-5l2 140v54 q0 78 -2 132q-3 101 -15 134q-36 106 -93.5 122.5t-57.5 57.5zM299 389q0 -150 16 -174q26 -38 88 -67q68 -31 148 -31h14q127 5 128 186q0 31 -11 107q-16 123 -60 186q-70 104 -139 105q-12 0 -26 -4q-104 -31 -138 -121q-20 -55 -20 -187z" />
<glyph unicode="q" horiz-adv-x="864" d="M-2 360q0 358 340 467q32 10 74 10q60 0 184 -55q20 -9 37 -12q21 0 113 37q12 5 51 14v-1053q0 -56 -1 -124t-1 -83q0 -54 -3 -53q2 2 7 2q70 47 150 47q0 -44 -123 -118q-117 -70 -173 -70q-24 0 -31 17v671q0 69 -24 70q-11 0 -94 -52q-95 -58 -189 -69q-95 0 -194 79 q-104 83 -117 183q-6 47 -6 92zM172 465q0 -132 66 -222q74 -101 203 -102q104 22 159 78q7 16 10 41q6 45 6 172q0 32 2 68t2 45q0 31 -20 55q-17 20 -102 95q-64 55 -134 55q-90 -11 -142 -95q-50 -79 -50 -190z" />
<glyph unicode="r" horiz-adv-x="702" d="M-24 735q3 18 38 23q21 2 72 8q60 9 139 31q51 14 68 14q36 -7 36 -45q0 -11 -3 -32t-3 -29q0 -20 17 -25q4 1 103 68q105 71 134 71q23 0 78 -19q63 -22 70 -44q-21 -41 -37 -70q-40 -71 -53 -74q-29 0 -68 30q-42 32 -75 36q-17 -1 -87.5 -52t-70.5 -57v-491 q-7 -22 -75 -64q-73 -45 -120 -45q-31 7 -31 189q0 59 3.5 182t3.5 168q0 57 -5 84q-11 71 -90 98q-44 15 -44 45z" />
<glyph unicode="s" horiz-adv-x="815" d="M22 583q0 131 153 209q126 64 302 72h12q55 0 92 -25q39 -28 39 -71q0 -57 -67 -90q-33 -16 -47 -16q-32 0 -58 51q-30 58 -69 69q-14 4 -37 4q-119 0 -137 -98q-4 -12 -4 -24q0 -81 133 -101q64 -7 128 -13q77 -9 125 -28q36 -13 68 -51q48 -57 48 -137q0 -65 -31 -139 q-33 -79 -146 -148q-122 -74 -250 -74q-39 0 -83 11q-150 34 -150 153q0 96 119 131q123 -188 254 -188q52 0 84 40q30 37 30 89q0 58 -46 112q-42 48 -82 57.5t-104 10.5q-86 2 -103 4q-117 11 -150 88q-23 54 -23 102z" />
<glyph unicode="t" horiz-adv-x="866" d="M0 746l344 225q26 -33 27 -93v-37q0 -25 4 -26q23 -6 51 -6q18 0 79.5 4t110.5 4q16 0 119 -4q0 -13 9 -35q10 -26 10 -41q0 -48 -76 -51q-146 -4 -312 -4q-12 -22 -12 -103q0 -18 1 -84.5t1 -115.5v-68q0 -96 21 -143q29 -65 111 -90q39 -13 77 -13q44 0 125 35 q31 6 29 6q21 0 31 -26q0 -26 -98 -71q-85 -40 -134.5 -50t-91.5 -10q-201 0 -276 168q0 483 -9 510q-6 20 -49 43q-61 33 -92 76z" />
<glyph unicode="u" horiz-adv-x="1030" d="M4 758q177 61 254 61q26 0 33 -14l-21 -299q-8 -120 -8 -119q0 -268 189 -303q69 1 122.5 124t53.5 282q0 167 -66 225q-12 11 -35 24q-20 13 -20 27q0 10 6 16q4 11 65 23q46 6 169 24q57 0 57 -126q0 -25 -2 -94.5t-2 -112.5q0 -277 4 -307q20 -64 55 -81q22 -5 51 -33 q0 -41 -72 -85q-11 -8 -28 -8q-40 0 -109.5 59t-72.5 59q-29 -5 -76 -57q-84 -94 -180 -94q-160 0 -232 118q-68 113 -68 273q0 51 8.5 139.5t8.5 118.5q0 65 -25 88q-59 55 -59 72z" />
<glyph unicode="v" horiz-adv-x="1042" d="M-29 717q0 20 44 52q50 38 102 38q69 0 119 -61q26 -30 73 -119q42 -82 97 -195q121 -253 145 -272q35 7 118 138q88 138 105 232q8 44 8 76q0 51 -20 95q-23 47 -23 61q5 30 109 41q51 0 51 -84q0 -97 -62 -309q-40 -141 -186 -310q-128 -149 -167 -149h-1q-26 0 -76 61 q-93 113 -210 387q-93 216 -183 277q-13 8 -25 16q-15 11 -18 25z" />
<glyph unicode="w" horiz-adv-x="1646" d="M-18 695q0 17 18 30q63 47 117 47q123 0 237 -250q3 -5 52 -116q28 -63 93 -165q61 -93 66 -93q18 0 112 150q98 156 99 208q-28 92 -88 131q-23 15 -46.5 30.5t-33.5 43.5q0 83 109 100q122 0 268 -321q36 -79 104 -220q53 -94 89 -96h1q51 0 224 434q-1 38 -39.5 86 t-38.5 74q6 13 51 28q43 13 74 13q24 0 35 -8q3 -3 19 -9q11 -4 12 -20q0 -25 -35 -127q-37 -110 -148 -349q-143 -310 -196 -320q-93 0 -195 192q-25 50 -72 141q-32 63 -45 78q-14 -22 -35 -56q-86 -133 -137 -206q-108 -152 -145 -156q-46 0 -113 102q-25 38 -204 359 q-46 82 -134 166q-75 73 -75 99z" />
<glyph unicode="x" horiz-adv-x="829" d="M-35 55q0 24 34 76q32 50 42 50q22 0 49 -23l12 -10q26 -26 62 -29q94 141 116 206q-26 78 -78 162q-93 147 -212 195q20 108 106 108q51 0 109 -42q76 -57 118 -134q17 -34 56 -96q35 83 101 166q90 111 165 113q26 0 60 -24q42 -29 43 -66q0 -24 -17 -45 q-45 -59 -76 -60q-19 0 -33 18l-6 9q-9 8 -31 18q-47 -57 -74 -94q-61 -84 -74 -129q3 -28 91 -162.5t111 -148.5q3 -2 12 -3q20 0 61.5 40.5t59.5 40.5q17 0 29 -27q-42 -55 -80 -95q-90 -95 -140 -96h-1q-51 0 -125 90q-6 7 -101 140q-8 12 -23 33q-27 -124 -85 -194.5 t-142 -70.5q-100 0 -139 84z" />
<glyph unicode="y" horiz-adv-x="905" d="M-69 723q92 88 153 88q187 -43 287 -266q23 -59 68 -172q33 -84 65 -121q55 68 92 205q40 147 41 307q0 18 27 39.5t53 21.5q45 0 45 -67v-6q-6 -192 -135 -482q-63 -141 -355 -700l103 -90q0 -23 -50 -64t-69 -41q-39 18 -69 37q-71 44 -83 78l287 537q-10 56 -103 263 q-96 212 -138 267q-67 85 -150 115q-18 5 -47 16q-22 8 -22 35z" />
<glyph unicode="z" horiz-adv-x="882" d="M8 690q0 22 39 76q16 26 53 69q28 25 70 25q36 0 137 -25q73 -18 266 -65q2 0 34.5 -3t54.5 -3q38 0 45 4q37 21 75 78q17 24 41 24q31 -9 31 -29q0 -26 -74 -100q-49 -46 -151 -154q-85 -94 -246 -278q-111 -134 -125 -174q117 0 253 2t165 2q143 0 231 -43 q28 -14 29 -61q-1 -45 -31 -168q-64 0 -64 27q0 8 8.5 24t8.5 23q0 9 -12 16q-203 37 -465 37q-127 0 -225 -12l-90 -11h1q-21 0 -26 19q0 57 268 344q127 132 262 286q-16 12 -215 55q-186 40 -225 44q-28 0 -56.5 -27.5t-39.5 -27.5q-13 0 -27 26z" />
<glyph unicode="&#xa8;" horiz-adv-x="850" d="M100 1042q30 36 56 61q59 61 78 64q147 -99 147 -133q0 -23 -115 -125q-23 0 -92.5 58t-73.5 75zM490 1040q30 36 54 61q59 61 78 64q148 -99 148 -133q0 -23 -115 -125q-23 0 -92.5 58t-72.5 75z" />
<glyph unicode="&#xad;" d="M2 532q48 137 111 190q69 57 202 56h84q15 0 45 2t46 2l649 6q-38 -166 -108 -221q-55 -45 -173 -45q-18 0 -58.5 1t-64.5 1q-18 0 -170 -2t-252 -2q-228 0 -311 12z" />
<glyph unicode="&#xaf;" horiz-adv-x="638" d="M20 1057q0 21 15 45q32 53 88 61l553 17q34 -3 33 -36q1 -19 -12 -42q-35 -62 -83 -64l-569 -18q-25 11 -25 37z" />
<glyph unicode="&#xb0;" horiz-adv-x="372" d="M4 1196q0 87 56.5 149t142.5 62q87 0 149 -64t62 -151q-1 -88 -58 -146q-59 -59 -145 -59q-88 0 -147.5 60.5t-59.5 148.5zM129 1196q0 -25 23 -64q18 -30 51 -30q36 0 65 32q25 22 25 66q0 52 -31 72q-15 6 -35 6q-53 0 -65 -18q-32 -30 -33 -64z" />
<glyph unicode="&#xb4;" horiz-adv-x="338" d="M73 953q0 38 36 101q32 57 49 64q7 5 27 19q116 76 153 76q18 0 37 -19q-44 -85 -117 -192q-46 -62 -127 -62q-28 0 -58 13z" />
<glyph unicode="&#xb7;" horiz-adv-x="722" d="M197 583q0 70 56 119.5t136 49.5q82 0 138 -49t56 -120q0 -49 -30 -89q-57 -76 -164 -76q-81 0 -136.5 47.5t-55.5 117.5z" />
<glyph unicode="&#x2c6;" horiz-adv-x="551" d="M27 928q72 117 216 235q132 108 180 108q6 0 9 -3q49 -49 98 -115q25 -37 82 -115q1 -9 2 -19q0 -51 -32.5 -89.5t-70.5 -38.5q-22 -1 -40 16q-115 163 -146 163q-21 0 -79 -56q-38 -37 -136 -125q-32 -20 -51 -21q-36 0 -32 60z" />
<glyph unicode="&#x2dc;" horiz-adv-x="817" d="M-73 856l243 243q114 75 185 75q41 0 128.5 -28.5t130.5 -28.5q53 0 95 30q8 6 14 -2q5 -7 -2 -15l-182 -181q-24 -17 -57 -17q-38 0 -113 29q-106 41 -152 41q-14 0 -26 -2q-63 -13 -264 -144z" />
<glyph unicode="&#x2000;" horiz-adv-x="764" />
<glyph unicode="&#x2001;" horiz-adv-x="1528" />
<glyph unicode="&#x2002;" horiz-adv-x="764" />
<glyph unicode="&#x2003;" horiz-adv-x="1528" />
<glyph unicode="&#x2004;" horiz-adv-x="509" />
<glyph unicode="&#x2005;" horiz-adv-x="382" />
<glyph unicode="&#x2006;" horiz-adv-x="254" />
<glyph unicode="&#x2007;" horiz-adv-x="254" />
<glyph unicode="&#x2008;" horiz-adv-x="191" />
<glyph unicode="&#x2009;" horiz-adv-x="305" />
<glyph unicode="&#x200a;" horiz-adv-x="84" />
<glyph unicode="&#x2010;" d="M2 532q48 137 111 190q69 57 202 56h84q15 0 45 2t46 2l649 6q-38 -166 -108 -221q-55 -45 -173 -45q-18 0 -58.5 1t-64.5 1q-18 0 -170 -2t-252 -2q-228 0 -311 12z" />
<glyph unicode="&#x2011;" d="M2 532q48 137 111 190q69 57 202 56h84q15 0 45 2t46 2l649 6q-38 -166 -108 -221q-55 -45 -173 -45q-18 0 -58.5 1t-64.5 1q-18 0 -170 -2t-252 -2q-228 0 -311 12z" />
<glyph unicode="&#x2012;" d="M2 532q48 137 111 190q69 57 202 56h84q15 0 45 2t46 2l649 6q-38 -166 -108 -221q-55 -45 -173 -45q-18 0 -58.5 1t-64.5 1q-18 0 -170 -2t-252 -2q-228 0 -311 12z" />
<glyph unicode="&#x2013;" horiz-adv-x="1142" d="M2 532q43 137 100 190q62 57 182 56h76q13 0 40 2t42 2l584 6q-34 -166 -97 -221q-50 -45 -156 -45q-16 0 -52.5 1t-58.5 1q-16 0 -153 -2t-227 -2q-205 0 -280 12z" />
<glyph unicode="&#x2014;" horiz-adv-x="2166" d="M2 532q86 137 200 190q124 57 364 56h151q27 0 81 2t83 2l1169 6q-68 -166 -195 -221q-99 -45 -311 -45q-33 0 -105.5 1t-116.5 1q-32 0 -306 -2t-454 -2q-410 0 -560 12z" />
<glyph unicode="&#x2018;" horiz-adv-x="282" d="M18 1089q56 86 101 148q108 149 143 153q51 0 51 -20q0 -15 -16 -35q-13 -15 -35 -39q-47 -50 -47 -59q2 -1 8 -6q35 -24 76 -68q0 -30 -48 -95q-45 -61 -70 -75q-8 0 -80 40q-76 42 -83 56z" />
<glyph unicode="&#x2019;" horiz-adv-x="311" d="M51 1018q0 19 49 71.5t50 61.5q-2 1 -9 6q-35 24 -76 68q0 37 39 95q40 63 81 75q42 0 100 -40q51 -34 61 -57q-53 -86 -96 -147q-106 -149 -148 -154q-51 0 -51 21z" />
<glyph unicode="&#x201c;" horiz-adv-x="540" d="M2 1153l250 229q49 0 49 -14q0 -9 -16 -29q-21 -21 -42 -41q-30 -32 -30 -40q0 -5 35 -23q44 -22 51 -41q0 -30 -48 -89q-44 -53 -68 -65q-4 0 -181 113zM331 1130q0 32 230 252q31 0 31 -20q0 -13 -64 -94q-5 -6 -12 -17l39 -19t45 -38q0 -26 -51 -86q-52 -62 -82 -68 q-96 52 -136 90z" />
<glyph unicode="&#x201d;" horiz-adv-x="561" d="M24 1233q0 26 52 86.5t82 66.5q96 -51 135 -90q0 -32 -230 -252q-30 0 -30 21q0 13 63 94q5 6 12 17l-38 20q-39 19 -46 37zM323 1059q0 15 44 57.5t45 53.5q0 5 -35 22q-44 22 -52 41q0 31 49 89q44 54 69 64q3 0 179 -112l-249 -230q-49 0 -50 15z" />
<glyph unicode="&#x2022;" horiz-adv-x="827" d="M-14 496q0 148 102.5 252t253.5 104q148 0 252.5 -102.5t104.5 -253.5q-1 -110 -56 -195q-106 -162 -301 -162q-149 0 -252.5 103t-103.5 254z" />
<glyph unicode="&#x2026;" horiz-adv-x="2048" />
<glyph unicode="&#x202f;" horiz-adv-x="305" />
<glyph unicode="&#x205f;" horiz-adv-x="382" />
<glyph unicode="&#xe000;" horiz-adv-x="798" d="M0 0v798h798v-798h-798z" />
</font>
</defs>
</svg>
